<?xml version="1.0" standalone="no"?>
<!DOCTYPE svg PUBLIC "-//W3C//DTD SVG 20010904//EN"
 "http://www.w3.org/TR/2001/REC-SVG-20010904/DTD/svg10.dtd">
<svg version="1.0" xmlns="http://www.w3.org/2000/svg"
 width="275.000000pt" height="286.000000pt" viewBox="0 0 275.000000 286.000000"
 preserveAspectRatio="xMidYMid meet">

<g transform="translate(0.000000,286.000000) scale(0.100000,-0.100000)"
fill="#000000" stroke="none">
<path d="M1662 2739 c-63 -13 -112 -78 -112 -149 0 -50 19 -89 60 -124 43 -35
130 -37 181 -3 114 76 78 252 -57 276 -22 4 -54 4 -72 0z m80 -116 c24 -21 23
-58 -3 -84 -33 -33 -89 -4 -89 47 0 48 55 70 92 37z m98 -34 c0 -11 -4 -17
-10 -14 -5 3 -10 13 -10 21 0 8 5 14 10 14 6 0 10 -9 10 -21z"/>
<path d="M2168 2668 c-23 -6 -53 -27 -78 -54 -40 -43 -40 -44 -40 -123 0 -76
2 -82 32 -117 98 -111 258 -90 319 41 32 68 18 147 -34 203 -45 49 -129 70
-199 50z m106 -129 c31 -25 35 -76 9 -107 -44 -51 -123 -17 -123 52 0 37 36
76 70 76 10 0 29 -9 44 -21z m116 -44 c0 -26 -14 -33 -25 -15 -9 14 1 40 15
40 5 0 10 -11 10 -25z"/>
<path d="M1241 2534 c-37 -26 -54 -77 -41 -124 14 -52 51 -80 106 -80 76 0
123 68 102 148 -16 61 -113 93 -167 56z m93 -70 c9 -8 16 -22 16 -29 0 -7 -7
-21 -16 -29 -8 -9 -22 -16 -29 -16 -16 0 -45 27 -45 41 0 43 45 63 74 33z"/>
<path d="M1854 2370 c-25 -10 -39 -63 -24 -91 14 -24 55 -34 86 -20 19 8 24
18 24 50 0 52 -39 80 -86 61z m40 -36 c9 -3 16 -12 16 -18 0 -18 -21 -35 -36
-29 -15 5 -19 35 -7 46 8 8 8 8 27 1z"/>
<path d="M1490 2267 c-19 -6 -58 -34 -87 -62 -81 -79 -101 -177 -56 -285 19
-47 79 -108 128 -131 44 -21 129 -25 186 -9 47 13 124 81 151 134 29 57 29
165 0 222 -27 53 -100 117 -150 132 -48 15 -125 14 -172 -1z m117 -177 c55
-19 70 -94 28 -135 -31 -32 -74 -33 -103 -2 -42 45 -34 108 18 134 14 7 25 13
26 13 1 0 15 -5 31 -10z m187 -32 c13 -49 2 -62 -28 -32 -12 12 -13 20 -6 35
14 25 26 24 34 -3z"/>
<path d="M986 2240 c-46 -14 -71 -45 -115 -144 l-42 -92 -241 -144 c-335 -200
-368 -223 -409 -283 l-34 -52 -8 -315 c-4 -173 -4 -372 1 -441 13 -204 22
-212 436 -454 123 -72 263 -150 311 -175 81 -42 93 -45 164 -45 73 0 80 2 181
56 147 79 493 283 567 336 70 49 109 95 124 144 5 19 14 131 20 249 l9 215
111 227 c61 125 113 244 116 266 15 108 -80 212 -192 212 -53 0 -74 -9 -174
-79 -88 -60 -146 -75 -262 -69 -104 6 -182 42 -252 117 -69 73 -97 140 -108
259 -12 131 -16 145 -48 176 -42 40 -97 53 -155 36z m143 -324 c-16 -18 -28 4
-16 31 l12 26 6 -24 c3 -13 3 -28 -2 -33z m-41 -343 c44 -47 72 -67 115 -83
32 -12 81 -37 110 -57 86 -58 117 -66 262 -67 l130 -1 60 38 c68 42 82 34 38
-21 -16 -20 -52 -82 -79 -137 l-49 -100 -5 -219 -5 -218 -32 -27 c-18 -14 -63
-42 -100 -61 -37 -19 -70 -38 -73 -41 -13 -16 -389 -229 -403 -229 -21 0 -583
325 -615 355 l-23 22 -2 340 c-2 328 -1 342 18 363 11 12 128 87 261 166 133
79 247 150 253 158 11 13 18 5 46 -52 19 -37 60 -95 93 -129z m1030 30 c4 -28
-23 -53 -59 -53 -37 0 -36 6 3 47 35 36 51 38 56 6z m-1911 -245 c-2 -13 -4
-3 -4 22 0 25 2 35 4 23 2 -13 2 -33 0 -45z"/>
<path d="M2020 2127 c-50 -17 -75 -71 -60 -126 31 -117 203 -92 203 29 0 33
-6 48 -29 70 -36 35 -68 43 -114 27z m65 -102 c0 -23 -5 -31 -21 -33 -27 -4
-47 21 -39 48 5 16 14 20 33 18 23 -2 27 -8 27 -33z"/>
<path d="M2293 2122 c-75 -59 -33 -182 62 -182 57 0 100 43 100 101 0 34 -6
46 -33 70 -38 34 -94 39 -129 11z m91 -74 c8 -14 7 -21 -6 -34 -30 -30 -75 9
-48 42 16 18 39 15 54 -8z"/>
</g>
</svg>
